{"title":"Smokin.Aces.2.Assassins.Ball.2010.1080p.BRRip.x264.AC3-Kay","uid":9777453,"size":2600643057,"categoryP":"video","categoryS":"hd___movies","magnet":"?xt=urn:btih:d06df48a35c2c8382881f5d061eb779af172f3e7&amp;dn=Smokin.Aces.2.Assassins.Ball.2010.1080p.BRRip.x264.AC3-Kay&amp;tr=udp%3A%2F%2Ftracker.openbittorrent.com%3A80&amp;tr=udp%3A%2F%2Fopen.demonii.com%3A1337&amp;tr=udp%3A%2F%2Ftracker.coppersurfer.tk%3A6969&amp;tr=udp%3A%2F%2Fexodus.desync.com%3A6969","seeders":2,"leechers":2,"uploader":"thegame2012","files":-1,"time":1395055662,"description":"Smokin.Aces.2.Assassins.Ball.2010.1080p.BRRip.x264.AC3-Kay\n\nIncludes Audio Commentary with P.J. Pesce and Joe Carnahan on Track Two.\n\n\n\n\nGeneral\nFormat                           : Matroska\nFile size                        : 2.40 GiB\nDuration                         : 1h 28mn\nOverall bit rate                 : 3 895 Kbps\n\n\nVideo\nID                               : 1\nFormat                           : AVC\nFormat/Info                      : Advanced Video Codec\nFormat profile                   : &lt;a class=&quot;__cf_email__&quot; href=&quot;/cdn-cgi/l/email-protection&quot; data-cfemail=&quot;92dafbf5fad2dea7bca2&quot;&gt;[email&amp;#160;protected]&lt;/a&gt;&lt;script cf-hash='f9e31' type=&quot;text/javascript&quot;&gt;\n/* &lt;![CDATA[ */!function(){try{var t=&quot;currentScript&quot;in document?document.currentScript:function(){for(var t=document.getElementsByTagName(&quot;script&quot;),e=t.length;e--;)if(t[e].getAttribute(&quot;cf-hash&quot;))return t[e]}();if(t&amp;&amp;t.previousSibling){var e,r,n,i,c=t.previousSibling,a=c.getAttribute(&quot;data-cfemail&quot;);if(a){for(e=&quot;&quot;,r=parseInt(a.substr(0,2),16),n=2;a.length-n;n+=2)i=parseInt(a.substr(n,2),16)^r,e+=String.fromCharCode(i);e=document.createTextNode(e),c.parentNode.replaceChild(e,c)}}}catch(u){}}();/* ]]&gt; */&lt;/script&gt;\nFormat settings, CABAC           : Yes\nFormat settings, ReFrames        : 5 frames\nDuration                         : 1h 27mn\nBit rate                         : 3 177 Kbps\nWidth                            : 1 920 pixels\nHeight                           : 1 072 pixels\nDisplay aspect ratio             : 16:9\nOriginal display aspect ratio    : 16:9\nFrame rate                       : 23.976 fps\nResolution                       : 8 bits\nColorimetry                      : 4:2:0\nScan type                        : Progressive\nBits/(Pixel*Frame)               : 0.064\nStream size                      : 1.95 GiB (81%)\nWriting library                  : x264 core 133 r2334 a3ac64b\n\n\nAudio #1\nID                               : 2\nFormat                           : AC-3\nFormat/Info                      : Audio Coding 3\nCodec ID                         : A_AC3\nDuration                         : 1h 28mn\nBit rate mode                    : Constant\nBit rate                         : 448 Kbps\nChannel(s)                       : 6 channels\nChannel positions                : Front: L C R, Surround: L R, LFE\nSampling rate                    : 48.0 KHz\nStream size                      : 282 MiB (12%)\nLanguage                         : English\n\nAudio #2\nID                               : 3\nFormat                           : AC-3\nFormat/Info                      : Audio Coding 3\nFormat profile                   : Dolby Digital\nCodec ID                         : A_AC3\nDuration                         : 1h 28mn\nBit rate mode                    : Constant\nBit rate                         : 192 Kbps\nChannel(s)                       : 2 channels\nChannel positions                : L R\nSampling rate                    : 48.0 KHz\nStream size                      : 121 MiB (5%)\nLanguage                         : English\n\n\nScreencaps: &lt;a href=&quot;\nhttp://s26.postimg.org/4vejsr3ft/Smokin_Aces_2_Assassins_Ball_2010_1080p_BRRip_x2.jpg&quot; rel=&quot;nofollow&quot; target=&quot;_NEW&quot;&gt;\nhttp://s26.postimg.org/4vejsr3ft/Smokin_Aces_2_Assassins_Ball_2010_1080p_BRRip_x2.jpg&lt;/a&gt; &lt;a href=&quot;\nhttp://s26.postimg.org/44ltmz12h/Smokin_Aces_2_Assassins_Ball_2010_1080p_BRRip_x2.jpg&quot; rel=&quot;nofollow&quot; target=&quot;_NEW&quot;&gt;\nhttp://s26.postimg.org/44ltmz12h/Smokin_Aces_2_Assassins_Ball_2010_1080p_BRRip_x2.jpg&lt;/a&gt; &lt;a href=&quot;\nhttp://s26.postimg.org/hk8ucf9k9/Smokin_Aces_2_Assassins_Ball_2010_1080p_BRRip_x2.jpg&quot; rel=&quot;nofollow&quot; target=&quot;_NEW&quot;&gt;\nhttp://s26.postimg.org/hk8ucf9k9/Smokin_Aces_2_Assassins_Ball_2010_1080p_BRRip_x2.jpg&lt;/a&gt; &lt;a href=&quot;\nhttp://s26.postimg.org/kd21wg9wp/Smokin_Aces_2_Assassins_Ball_2010_1080p_BRRip_x2.jpg&quot; rel=&quot;nofollow&quot; target=&quot;_NEW&quot;&gt;\nhttp://s26.postimg.org/kd21wg9wp/Smokin_Aces_2_Assassins_Ball_2010_1080p_BRRip_x2.jpg&lt;/a&gt;\n\n\nPlease rate/comment/seed!\n\nThanks\n-Kay","torrent":{"xt":"urn:btih:d06df48a35c2c8382881f5d061eb779af172f3e7","amp;dn":"Smokin.Aces.2.Assassins.Ball.2010.1080p.BRRip.x264.AC3-Kay","amp;tr":["udp%3A%2F%2Ftracker.openbittorrent.com%3A80","udp%3A%2F%2Fopen.demonii.com%3A1337","udp%3A%2F%2Ftracker.coppersurfer.tk%3A6969","udp%3A%2F%2Fexodus.desync.com%3A6969"],"infoHash":"d06df48a35c2c8382881f5d061eb779af172f3e7","infoHashBuffer":{"type":"Buffer","data":[208,109,244,138,53,194,200,56,40,129,245,208,97,235,119,154,241,114,243,231]},"announce":[],"urlList":[]}}